<svg width="1069" height="300" viewBox="0 0 1069 300" fill="none" xmlns="http://www.w3.org/2000/svg">
<path d="M168.697 129.125L181.406 141.985C186.701 147.432 186.399 156.207 180.801 161.956L165.218 177.69L148.878 161.199C145.549 157.871 140.254 157.871 137.077 161.199L102.885 195.543L126.487 219.447C133.9 227.012 146.306 226.558 154.022 218.691L197.897 174.362C209.698 162.259 210.152 143.498 198.956 132.303L182.162 115.358L168.697 129.125Z" fill="white"/>
<path d="M128.302 80.8631L83.9736 125.948C72.4754 137.598 71.8701 156.207 83.0657 167.554L99.7079 184.347L112.265 171.639L99.7079 158.93C94.4127 153.484 94.4127 145.163 99.7079 139.867L116.955 122.317L132.992 138.657C136.321 141.985 141.616 141.985 144.642 138.657L178.834 104.313L155.686 80.5606C148.424 72.6934 136.169 73.1472 128.302 80.8631Z" fill="white"/>
<path d="M377.784 199.477C373.699 200.536 368.403 201.595 362.2 202.502C355.997 203.41 349.038 203.864 342.078 203.864C334.968 203.864 328.916 202.956 324.377 201.141C319.536 199.325 315.905 196.753 313.03 193.425C310.156 190.248 308.189 186.314 306.979 181.473C305.768 176.783 305.163 171.941 305.163 166.343V122.166H328.916V164.074C328.916 171.336 329.975 176.48 331.942 179.96C333.909 183.288 337.691 184.801 343.289 184.801C345.104 184.801 346.617 184.801 348.735 184.65C350.702 184.499 352.518 184.347 353.879 184.045V122.166H377.632L377.784 199.477Z" fill="white"/>
<path d="M418.633 186.163C423.02 186.163 426.046 185.86 428.013 184.953C429.828 184.045 430.736 182.683 430.736 180.262C430.736 178.447 429.526 176.934 427.408 175.421C425.138 174.059 421.356 172.546 416.515 170.731C412.732 169.521 409.404 168.008 406.227 166.646C403.201 165.285 400.477 163.62 398.511 161.502C396.392 159.535 394.728 157.266 393.669 154.391C392.459 151.668 391.854 148.34 391.854 144.406C391.854 136.993 394.88 131.092 400.78 126.402C406.529 122.166 414.85 119.897 424.987 119.897C430.131 119.897 434.972 120.199 439.511 121.107C444.352 122.015 447.983 122.922 450.707 123.981L446.47 141.683C443.596 140.775 440.721 139.867 437.393 139.262C434.216 138.506 430.433 138.203 426.5 138.203C419.086 138.203 415.304 140.17 415.304 144.103C415.304 145.011 415.455 145.919 415.909 146.524C416.212 147.281 416.817 147.886 417.876 148.491C418.784 149.247 420.146 149.853 421.81 150.609C423.474 151.365 425.592 152.273 428.013 153.03C433.308 154.845 437.393 156.51 440.873 158.325C444.201 160.141 447.076 162.107 448.891 164.074C450.858 166.192 452.22 168.31 453.127 171.185C454.035 173.606 454.338 176.631 454.338 179.96C454.338 187.978 451.16 193.879 444.957 197.964C438.754 202.049 429.979 204.015 418.481 204.015C411.068 204.015 404.865 203.41 399.872 202.2C395.031 200.99 391.4 200.082 389.584 199.174L393.669 180.716C397.754 182.38 401.99 183.44 406.227 184.196C410.463 185.558 414.699 186.163 418.633 186.163Z" fill="white"/>
<path d="M465.987 108.55H489.74L489.892 118.686H511.375V136.841H490.043L489.892 167.1C489.892 171.941 490.799 177.993 492.615 181.019C494.43 183.894 497.91 185.255 503.054 185.255C505.475 185.255 508.198 185.104 511.073 184.499C513.796 183.893 516.216 183.44 518.486 182.532L521.814 200.233C518.94 201.292 515.763 202.351 512.434 203.108C509.106 204.015 504.718 204.318 499.574 204.318C493.069 204.318 487.773 203.41 483.386 201.897C479.15 200.233 475.67 197.964 473.098 194.787C470.677 191.609 468.71 188.281 467.803 183.893C466.744 179.657 466.138 174.816 466.138 169.672L465.987 108.55Z" fill="white"/>
<path d="M808.665 118.384C815.776 118.384 821.525 119.14 826.215 120.653C831.056 122.317 834.687 124.435 837.562 127.159C840.436 130.033 842.403 133.362 843.614 137.598C844.824 141.683 845.429 147.734 845.429 152.878V200.082C842.101 200.838 837.411 201.746 831.208 202.502C825.156 203.41 817.894 203.864 809.119 203.864C803.673 203.864 798.831 203.259 794.443 202.502C790.056 201.595 786.122 200.233 783.096 198.115C780.071 195.997 777.348 193.273 775.683 189.945C773.868 186.617 772.96 182.532 772.96 177.539C772.96 172.849 774.019 165.587 775.986 162.259C777.953 159.081 780.676 156.358 784.004 154.543C787.333 152.576 791.115 151.214 795.351 150.458C799.588 149.55 803.824 149.247 808.514 149.247C811.691 149.247 814.263 149.399 816.835 149.55C819.256 149.701 821.222 150.155 822.584 150.609C822.584 150.609 821.979 146.675 821.676 145.616C821.525 144.557 821.374 143.347 818.802 140.926C816.381 138.657 811.993 137.447 806.244 137.447C802.159 137.447 798.226 137.749 794.292 138.354C790.359 138.959 783.399 141.38 780.676 142.439L777.801 123.83C781.886 122.015 784.61 121.41 786.274 120.804C788.392 120.199 790.661 119.897 793.233 119.594C795.805 119.291 798.377 118.838 800.949 118.686C803.37 118.838 806.244 118.384 808.665 118.384ZM810.783 186.465C813.053 186.465 815.473 186.465 817.591 186.314C819.709 186.163 821.525 186.163 822.735 185.709V167.1C821.828 166.949 820.315 166.797 818.499 166.495C816.532 166.343 814.717 166.192 813.204 166.192C810.935 166.192 808.816 166.343 807.001 166.495C805.034 166.646 803.219 167.251 801.857 167.856C800.495 168.613 799.134 169.521 798.529 170.731C797.621 171.941 797.318 175.118 797.318 176.934C797.318 180.414 798.529 182.986 801.101 184.196C803.067 185.86 806.244 186.465 810.783 186.465Z" fill="white"/>
<path d="M858.138 107.642H881.891V118.686H903.374V136.841H881.891V166.041C881.891 170.882 882.798 176.934 884.614 179.96C886.429 182.834 889.909 184.196 895.053 184.196C897.474 184.196 900.197 184.045 903.072 183.44C905.795 182.834 908.216 182.38 910.485 181.473L913.813 199.174C910.939 200.233 907.762 201.292 904.433 202.048C901.105 202.956 896.717 203.259 891.574 203.259C885.068 203.259 879.772 202.351 875.385 200.838C871.149 199.174 867.669 196.905 865.097 193.727C862.677 190.702 860.71 187.222 859.802 182.834C858.743 178.598 858.138 173.757 858.138 168.613V107.642Z" fill="white"/>
<path d="M267.037 149.399V95.6898H290.79V169.672C290.79 174.816 290.185 179.657 289.126 183.893C288.067 188.13 286.251 191.912 283.831 194.787C281.41 197.812 277.779 200.082 273.543 201.897C269.307 203.561 263.709 204.318 257.354 204.318C252.211 204.318 247.974 204.015 244.495 203.108C241.166 202.2 237.686 201.292 235.115 200.233L238.443 182.532C240.712 183.44 243.284 183.893 245.856 184.499C248.58 185.104 251.152 185.255 253.875 185.255C259.17 185.255 262.801 183.893 264.314 181.019C266.13 178.144 267.037 171.941 267.037 167.1V167.705V149.399Z" fill="white"/>
<path d="M736.196 168.008V167.554C736.196 172.395 737.104 178.447 738.919 181.473C740.735 184.347 744.215 185.709 749.359 185.709C751.779 185.709 754.653 185.558 757.377 184.953C760.251 184.347 760.705 183.893 763.126 182.986L766.454 200.687C763.428 201.897 762.218 202.654 758.739 203.561C755.259 204.469 751.023 204.772 745.879 204.772C739.373 204.772 734.078 203.864 729.69 202.351C725.454 200.687 721.974 198.417 719.402 195.24C716.982 192.214 715.015 188.735 714.107 184.347C713.048 180.111 712.443 175.27 712.443 170.126V107.642H736.045V150.155L736.196 168.008Z" fill="white"/>
<path d="M557.065 116.417C558.276 116.266 559.789 116.266 561.15 116.114C562.814 115.963 564.327 115.963 565.992 115.963C574.01 115.963 579.608 115.963 583.996 119.291C587.929 122.015 590.198 125.192 590.198 130.336C590.198 135.631 587.929 144.255 584.147 146.827C580.818 149.247 575.826 150.004 569.169 150.155V167.251L571.438 170.277C572.043 170.882 572.497 171.488 573.405 172.698L575.674 175.724C577.339 177.842 579.003 179.96 580.516 182.078L595.948 202.502H623.029C621.062 198.569 619.095 194.484 616.826 190.55C614.708 186.465 612.136 182.532 609.866 179.052C607.597 175.27 605.025 171.79 602.756 168.462C600.335 165.133 597.914 161.956 595.645 159.384C602.453 156.661 607.446 153.181 611.077 148.491C614.405 143.801 616.372 137.901 616.372 130.336C616.372 118.384 611.985 109.76 603.21 104.011C594.132 98.5644 577.944 95.5386 561.453 95.5386C556.763 95.5386 551.468 95.6899 546.021 96.295C540.272 96.5976 538.002 97.3539 532.707 98.413V202.502H557.368V150.004L557.065 116.417Z" fill="white"/>
<path d="M917.444 160.746C917.444 153.484 918.503 147.281 920.773 141.531C922.891 136.085 925.917 131.546 929.245 127.915C932.574 124.435 936.961 121.561 941.5 119.745C946.19 117.93 950.88 116.871 956.024 116.871C967.371 116.871 976.6 120.351 983.257 127.461C990.065 134.572 993.242 145.011 993.242 158.93C993.242 160.292 993.242 161.805 993.091 163.318C992.939 164.831 992.939 166.344 992.788 167.554H940.895C941.5 172.395 943.618 176.026 947.703 178.901C951.636 181.775 956.781 183.137 963.286 183.137C967.522 183.137 971.607 182.834 975.541 181.927C979.626 181.17 982.954 180.111 985.526 179.052L988.552 198.115C987.342 198.72 985.677 199.325 983.711 199.931C981.593 200.536 979.323 201.141 976.751 201.595C974.33 202.2 971.456 202.502 968.733 202.805C965.858 203.108 962.984 203.41 960.26 203.41C953.149 203.41 946.644 202.351 941.197 200.233C935.751 198.115 931.212 195.089 927.884 191.155C924.555 187.373 921.681 182.986 920.168 177.842C918.352 172.244 917.444 166.797 917.444 160.746ZM971.305 151.819C971.153 149.853 971.002 147.886 970.246 146.07C969.641 144.255 968.884 142.591 967.522 140.926C966.312 139.565 964.799 138.203 963.135 137.447C961.319 136.539 959.05 136.085 956.326 136.085C953.603 136.085 951.485 136.388 949.518 137.295C947.703 138.203 946.19 139.262 944.828 140.775C943.618 142.439 942.71 143.952 941.954 145.768C941.197 147.734 940.743 149.701 940.592 151.668L971.305 151.819Z" fill="white"/>
<path d="M624.542 160.746C624.542 153.484 625.601 147.281 627.87 141.531C629.989 136.085 633.014 131.546 636.343 127.915C639.671 124.435 644.059 121.561 648.598 119.745C653.288 117.93 657.978 116.871 663.122 116.871C674.469 116.871 683.698 120.351 690.354 127.461C697.163 134.572 700.34 145.011 700.34 158.93C700.34 160.292 700.34 161.805 700.188 163.318C700.037 164.831 700.037 166.344 699.886 167.554H647.992C648.598 172.395 650.716 176.026 654.801 178.901C658.734 181.775 663.878 183.137 670.384 183.137C674.62 183.137 678.705 182.834 682.638 181.927C686.723 181.17 690.052 180.111 692.624 179.052L695.65 198.115C694.439 198.72 692.775 199.325 690.808 199.931C688.69 200.536 686.421 201.141 683.849 201.595C681.428 202.2 678.553 202.502 675.83 202.805C672.956 203.108 670.081 203.41 667.358 203.41C660.247 203.41 653.742 202.351 648.295 200.233C642.848 198.115 638.31 195.089 634.981 191.155C631.653 187.373 628.778 182.986 627.265 177.842C625.45 172.244 624.542 166.797 624.542 160.746ZM678.402 151.819C678.251 149.853 678.1 147.886 677.343 146.07C676.738 144.255 675.981 142.591 674.62 140.926C673.409 139.565 671.897 138.203 670.232 137.447C668.417 136.539 666.148 136.085 663.424 136.085C660.701 136.085 658.583 136.388 656.616 137.295C654.801 138.203 653.288 139.262 651.926 140.775C650.716 142.59 649.808 143.952 649.051 145.768C648.295 147.734 647.841 149.701 647.69 151.668L678.402 151.819Z" fill="white"/>
</svg>
