<svg width="1069" height="300" viewBox="0 0 1069 300" fill="none" xmlns="http://www.w3.org/2000/svg">
<path d="M167.487 130.32L180.196 143.18C185.491 148.626 185.188 157.401 179.591 163.15L166.125 176.767L149.786 160.276C146.457 156.947 141.162 156.947 137.985 160.276L102.734 195.678L126.336 219.582C133.749 227.147 146.155 226.693 153.871 218.826L197.746 174.497C209.547 162.394 210 143.634 198.805 132.438L182.011 115.493L167.487 130.32Z" fill="#495054"/>
<path d="M128.302 80.9984L83.9735 126.084C72.4753 137.733 71.8701 156.342 83.0658 167.689L99.708 184.483L113.324 170.715L100.767 158.006C95.4718 152.56 95.4718 144.239 100.767 138.944L115.896 123.512L131.933 139.851C135.262 143.18 140.557 143.18 143.583 139.851L178.834 104.449L155.686 80.6959C148.273 72.8286 136.018 73.2824 128.302 80.9984Z" fill="#E35E3B"/>
<path d="M377.633 199.612C373.548 200.671 368.253 201.73 362.05 202.638C355.847 203.545 348.887 203.999 341.928 203.999C334.817 203.999 328.765 203.092 324.227 201.276C319.385 199.46 315.754 196.889 312.88 193.56C310.005 190.383 308.038 186.449 306.828 181.608C305.618 176.918 305.013 172.077 305.013 166.479V122.301H328.765V164.209C328.765 171.471 329.824 176.615 331.791 180.095C333.758 183.423 337.54 184.937 343.138 184.937C344.954 184.937 346.467 184.936 348.585 184.785C350.552 184.634 352.367 184.483 353.729 184.18V122.301H377.482L377.633 199.612Z" fill="#495054"/>
<path d="M418.482 186.298C422.87 186.298 425.895 185.996 427.862 185.088C429.678 184.18 430.586 182.818 430.586 180.398C430.586 178.582 429.375 177.069 427.257 175.556C424.988 174.195 421.205 172.682 416.364 170.866C412.582 169.656 409.253 168.143 406.076 166.781C403.05 165.42 400.327 163.756 398.36 161.637C396.242 159.671 394.578 157.401 393.519 154.527C392.309 151.803 391.703 148.475 391.703 144.541C391.703 137.128 394.729 131.227 400.63 126.537C406.379 122.301 414.7 120.032 424.836 120.032C429.98 120.032 434.822 120.334 439.361 121.242C444.202 122.15 447.833 123.058 450.556 124.117L446.32 141.818C443.445 140.91 440.571 140.002 437.242 139.397C434.065 138.641 430.283 138.338 426.349 138.338C418.936 138.338 415.154 140.305 415.154 144.239C415.154 145.147 415.305 146.054 415.759 146.659C416.061 147.416 416.667 148.021 417.726 148.626C418.633 149.383 419.995 149.988 421.659 150.744C423.324 151.501 425.442 152.409 427.862 153.165C433.157 154.981 437.242 156.645 440.722 158.46C444.051 160.276 446.925 162.243 448.741 164.209C450.708 166.327 452.069 168.446 452.977 171.32C453.885 173.741 454.187 176.767 454.187 180.095C454.187 188.114 451.01 194.014 444.807 198.099C438.604 202.184 429.829 204.151 418.331 204.151C410.917 204.151 404.715 203.546 399.722 202.335C394.88 201.125 391.249 200.217 389.434 199.309L393.519 180.852C397.604 182.516 401.84 183.575 406.076 184.331C410.312 185.693 414.549 186.298 418.482 186.298Z" fill="#495054"/>
<path d="M465.837 108.685H489.59L489.741 118.822H511.224V136.977H489.892L489.741 167.235C489.741 172.077 490.649 178.128 492.464 181.154C494.28 184.029 497.759 185.39 502.903 185.39C505.324 185.39 508.047 185.239 510.922 184.634C513.645 184.029 516.066 183.575 518.335 182.667L521.664 200.368C518.789 201.427 515.612 202.486 512.284 203.243C508.955 204.151 504.568 204.453 499.424 204.453C492.918 204.453 487.623 203.545 483.235 202.032C478.999 200.368 475.52 198.099 472.948 194.922C470.527 191.745 468.56 188.416 467.652 184.029C466.593 179.792 465.988 174.951 465.988 169.807L465.837 108.685Z" fill="#495054"/>
<path d="M808.514 118.519C815.625 118.519 821.374 119.275 826.064 120.788C830.906 122.453 834.537 124.571 837.411 127.294C840.286 130.168 842.253 133.497 843.463 137.733C844.673 141.818 845.279 147.87 845.279 153.014V200.217C841.95 200.973 837.26 201.881 831.057 202.638C825.005 203.545 817.743 203.999 808.968 203.999C803.522 203.999 798.68 203.394 794.293 202.638C789.906 201.73 785.972 200.368 782.946 198.25C779.92 196.132 777.197 193.409 775.533 190.08C773.717 186.752 772.809 182.667 772.809 177.674C772.809 172.984 773.868 165.722 775.835 162.394C777.802 159.217 780.525 156.493 783.854 154.678C787.182 152.711 790.965 151.349 795.201 150.593C799.437 149.685 803.673 149.383 808.363 149.383C811.54 149.383 814.112 149.534 816.684 149.685C819.105 149.837 821.072 150.29 822.433 150.744C822.433 150.744 821.828 146.811 821.526 145.752C821.374 144.693 821.223 143.482 818.651 141.062C816.23 138.792 811.843 137.582 806.094 137.582C802.009 137.582 798.075 137.884 794.142 138.49C790.208 139.095 783.248 141.516 780.525 142.575L777.651 123.965C781.736 122.15 784.459 121.545 786.123 120.94C788.241 120.334 790.511 120.032 793.083 119.729C795.655 119.427 798.226 118.973 800.798 118.821C803.219 118.973 806.094 118.519 808.514 118.519ZM810.632 186.601C812.902 186.601 815.323 186.601 817.441 186.449C819.559 186.298 821.374 186.298 822.585 185.844V167.235C821.677 167.084 820.164 166.933 818.348 166.63C816.382 166.479 814.566 166.327 813.053 166.327C810.784 166.327 808.666 166.479 806.85 166.63C804.883 166.781 803.068 167.386 801.706 167.992C800.345 168.748 798.983 169.656 798.378 170.866C797.47 172.077 797.167 175.254 797.167 177.069C797.167 180.549 798.378 183.121 800.95 184.331C802.917 185.996 806.094 186.601 810.632 186.601Z" fill="#E35E3B"/>
<path d="M857.987 107.777H881.74V118.822H903.224V136.977H881.74V166.176C881.74 171.018 882.648 177.069 884.464 180.095C886.279 182.97 889.759 184.331 894.903 184.331C897.323 184.331 900.047 184.18 902.921 183.575C905.644 182.97 908.065 182.516 910.335 181.608L913.663 199.309C910.788 200.368 907.611 201.427 904.283 202.184C900.954 203.091 896.567 203.394 891.423 203.394C884.917 203.394 879.622 202.486 875.235 200.974C870.999 199.309 867.519 197.04 864.947 193.863C862.526 190.837 860.559 187.357 859.651 182.97C858.592 178.733 857.987 173.892 857.987 168.748V107.777Z" fill="#E35E3B"/>
<path d="M266.887 149.534V95.8251H290.64V169.807C290.64 174.951 290.035 179.792 288.975 184.029C287.916 188.265 286.101 192.047 283.68 194.922C281.26 197.948 277.629 200.217 273.392 202.032C269.156 203.697 263.558 204.453 257.204 204.453C252.06 204.453 247.824 204.151 244.344 203.243C241.016 202.335 237.536 201.427 234.964 200.368L238.292 182.667C240.562 183.575 243.134 184.029 245.706 184.634C248.429 185.239 251.001 185.39 253.724 185.39C259.02 185.39 262.651 184.029 264.164 181.154C265.979 178.28 266.887 172.077 266.887 167.235V167.84V149.534Z" fill="#495054"/>
<path d="M736.045 168.143V167.689C736.045 172.53 736.953 178.582 738.769 181.608C740.584 184.483 744.064 185.844 749.208 185.844C751.628 185.844 754.503 185.693 757.226 185.088C760.101 184.483 760.555 184.029 762.975 183.121L766.304 200.822C763.278 202.033 762.068 202.789 758.588 203.697C755.108 204.604 750.872 204.907 745.728 204.907C739.222 204.907 733.927 203.999 729.54 202.486C725.304 200.822 721.824 198.553 719.252 195.376C716.831 192.35 714.864 188.87 713.957 184.483C712.897 180.246 712.292 175.405 712.292 170.261V107.777H735.894V150.29L736.045 168.143Z" fill="#E35E3B"/>
<path d="M556.915 116.552C558.125 116.401 559.638 116.401 561 116.25C562.664 116.098 564.177 116.098 565.841 116.098C573.86 116.098 579.457 116.098 583.845 119.427C587.779 122.15 590.048 125.327 590.048 130.471C590.048 135.766 587.779 144.39 583.996 146.962C580.668 149.383 575.675 150.139 569.018 150.29V167.386L571.288 170.412C571.893 171.017 572.347 171.623 573.254 172.833L575.524 175.859C577.188 177.977 578.852 180.095 580.365 182.213L595.797 202.638H622.879C620.912 198.704 618.945 194.619 616.676 190.686C614.557 186.601 611.986 182.667 609.716 179.187C607.447 175.405 604.875 171.925 602.605 168.597C600.185 165.268 597.764 162.091 595.495 159.519C602.303 156.796 607.295 153.316 610.926 148.626C614.255 143.936 616.222 138.036 616.222 130.471C616.222 118.519 611.834 109.895 603.059 104.146C593.982 98.6996 577.793 95.6738 561.302 95.6738C556.612 95.6738 551.317 95.8251 545.871 96.4303C540.121 96.7329 537.852 97.4892 532.557 98.5482V202.638H557.217V150.139L556.915 116.552Z" fill="#E35E3B"/>
<path d="M917.294 160.881C917.294 153.619 918.353 147.416 920.622 141.667C922.741 136.22 925.766 131.681 929.095 128.05C932.423 124.571 936.811 121.696 941.35 119.881C946.04 118.065 950.73 117.006 955.874 117.006C967.221 117.006 976.449 120.486 983.106 127.597C989.914 134.707 993.092 145.146 993.092 159.065C993.092 160.427 993.092 161.94 992.94 163.453C992.789 164.966 992.789 166.479 992.638 167.689H940.744C941.349 172.53 943.468 176.162 947.552 179.036C951.486 181.911 956.63 183.272 963.136 183.272C967.372 183.272 971.457 182.97 975.39 182.062C979.475 181.305 982.804 180.246 985.376 179.187L988.401 198.25C987.191 198.855 985.527 199.461 983.56 200.066C981.442 200.671 979.173 201.276 976.601 201.73C974.18 202.335 971.305 202.638 968.582 202.94C965.708 203.243 962.833 203.545 960.11 203.545C952.999 203.545 946.494 202.486 941.047 200.368C935.6 198.25 931.062 195.224 927.733 191.291C924.405 187.508 921.53 183.121 920.017 177.977C918.202 172.379 917.294 166.933 917.294 160.881ZM971.154 151.955C971.003 149.988 970.852 148.021 970.095 146.205C969.49 144.39 968.733 142.726 967.372 141.062C966.161 139.7 964.649 138.338 962.984 137.582C961.169 136.674 958.9 136.22 956.176 136.22C953.453 136.22 951.335 136.523 949.368 137.431C947.553 138.338 946.04 139.397 944.678 140.91C943.468 142.574 942.56 144.087 941.803 145.903C941.047 147.87 940.593 149.837 940.442 151.803L971.154 151.955Z" fill="#E35E3B"/>
<path d="M624.391 160.881C624.391 153.619 625.45 147.416 627.719 141.667C629.838 136.22 632.864 131.681 636.192 128.05C639.52 124.571 643.908 121.696 648.447 119.881C653.137 118.065 657.827 117.006 662.971 117.006C674.318 117.006 683.547 120.486 690.203 127.597C697.012 134.707 700.189 145.146 700.189 159.065C700.189 160.427 700.189 161.94 700.037 163.453C699.886 164.966 699.886 166.479 699.735 167.689H647.841C648.447 172.53 650.565 176.162 654.65 179.036C658.583 181.911 663.727 183.272 670.233 183.272C674.469 183.272 678.554 182.97 682.488 182.062C686.572 181.305 689.901 180.246 692.473 179.187L695.499 198.25C694.288 198.855 692.624 199.461 690.657 200.066C688.539 200.671 686.27 201.276 683.698 201.73C681.277 202.335 678.403 202.638 675.679 202.94C672.805 203.243 669.93 203.545 667.207 203.545C660.096 203.545 653.591 202.486 648.144 200.368C642.697 198.25 638.159 195.224 634.83 191.291C631.502 187.508 628.627 183.121 627.114 177.977C625.299 172.379 624.391 166.933 624.391 160.881ZM678.251 151.955C678.1 149.988 677.949 148.021 677.192 146.205C676.587 144.39 675.831 142.726 674.469 141.062C673.259 139.7 671.746 138.338 670.081 137.582C668.266 136.674 665.997 136.22 663.273 136.22C660.55 136.22 658.432 136.523 656.465 137.431C654.65 138.338 653.137 139.397 651.775 140.91C650.565 142.726 649.657 144.087 648.9 145.903C648.144 147.87 647.69 149.837 647.539 151.803L678.251 151.955Z" fill="#E35E3B"/>
</svg>
